<svg xmlns="http://www.w3.org/2000/svg" width="429" height="105.26778881968198" viewBox="0 0 200 49.07589222362796" class="looka-1j8o68f"><defs id="SvgjsDefs1508"><linearGradient id="SvgjsLinearGradient1511"><stop id="SvgjsStop1512" stop-color="#905e26" offset="0"></stop><stop id="SvgjsStop1513" stop-color="#f5ec9b" offset="0.5"></stop><stop id="SvgjsStop1514" stop-color="#905e26" offset="1"></stop></linearGradient></defs><g id="SvgjsG1509" featurekey="K5GtsI-0" transform="matrix(3.9323633031827745,0,0,3.9323633031827745,-1.6515926529651583,-30.12190042725209)" fill="url(#SvgjsLinearGradient1511)"><path d="M0.42 7.76 l10.2 0 l0 2.78 l-3.6 0 l0 9.46 l-3 0 l0 -9.46 l-3.6 0 l0 -2.78 z M23 12.5 l0 6.8 c-1.42 0.54 -3.2 0.84 -4.72 0.84 c-3.9 0 -6.52 -2.34 -6.52 -6.2 c0 -4.22 3.14 -6.28 6.98 -6.28 c0.26 0 0.54 0 0.86 0.02 c0.3 0.02 0.62 0.06 0.96 0.08 c0.62 0.08 1.24 0.16 1.84 0.34 l0 3.06 c-0.22 -0.1 -0.46 -0.18 -0.74 -0.26 c-0.3 -0.06 -0.6 -0.12 -0.92 -0.18 c-0.64 -0.12 -1.32 -0.16 -1.98 -0.16 c-2.54 0 -4 0.78 -4 3.38 c0 2.54 1.34 3.3 3.62 3.3 c0.24 0 0.5 -0.02 0.78 -0.04 c0.26 -0.02 0.54 -0.04 0.84 -0.06 l0 -1.86 l-2.6 0 l0 -2.78 l5.6 0 z M27.900000000000002 13.26 l0 6.74 l-3 0 l0 -12.24 l3 0 l3.82 6.76 l3.82 -6.76 l3 0 l0 12.24 l-3 0 l0 -6.74 l-2.32 3.98 l-3 0 z M48.28 7.76 l3 0 l0 7.24 c0 3.18 -2.28 5.1 -5.3 5.1 c-3.1 0 -5.3 -2.04 -5.3 -5.1 l0 -7.24 l3 0 l0 7.24 c0 1.44 0.86 2.32 2.3 2.32 c1.48 0 2.3 -0.86 2.3 -2.32 l0 -7.24 z"></path></g></svg>